<?xml version="1.0" encoding="UTF-8" standalone="no"?>
<svg
   xmlns:dc="http://purl.org/dc/elements/1.1/"
   xmlns:cc="http://creativecommons.org/ns#"
   xmlns:rdf="http://www.w3.org/1999/02/22-rdf-syntax-ns#"
   xmlns:svg="http://www.w3.org/2000/svg"
   xmlns="http://www.w3.org/2000/svg"
   version="1.1"
   id="svg2"
   width="64"
   height="64"
   viewBox="0 0 85.333333 85.333333"
   aria-hidden="true"
   style="fill:#757575">
  <metadata
     id="metadata12">
    <rdf:RDF>
      <cc:Work
         rdf:about="">
        <dc:format>image/svg+xml</dc:format>
        <dc:type
           rdf:resource="http://purl.org/dc/dcmitype/StillImage" />
        <dc:title></dc:title>
      </cc:Work>
    </rdf:RDF>
  </metadata>
  <defs
     id="defs10" />
  <path
     style="fill:#cccccc;fill-opacity:1"
     id="path4"
     d="M 42.666667,0 C 19.093334,0 0,19.093334 0,42.666667 0,66.24 19.093334,85.333334 42.666667,85.333334 66.24,85.333334 85.333334,66.24 85.333334,42.666667 85.333334,19.093334 66.24,0 42.666667,0 Z m 0,73.386667 c -10.688,0 -20.074667,-5.461333 -25.6,-13.738667 0.106667,-8.469333 17.088,-13.141333 25.6,-13.141333 8.512,0 25.472,4.672 25.6,13.141333 -5.525333,8.277334 -14.912,13.738667 -25.6,13.738667 z m 0,-60.586667 c 7.061333,0 12.8,5.738667 12.8,12.8 0,7.082667 -5.738667,12.8 -12.8,12.8 -7.061333,0 -12.8,-5.717333 -12.8,-12.8 0,-7.061333 5.738667,-12.8 12.8,-12.8 z" />
  <path
     id="path6"
     d="m 18.666667,18.666667 48,0 0,48 -48,0 z"
     style="fill:none" />
</svg>
